<svg width="217" height="88" viewBox="0 0 217 88" fill="none" xmlns="http://www.w3.org/2000/svg">
<path d="M153.571 1.84202C155.108 0.662575 157.192 0 159.365 0C161.538 0 163.622 0.662575 165.159 1.84202L214.331 39.59C215.867 40.7698 216.73 42.3697 216.73 44.038C216.73 45.7062 215.867 47.3061 214.331 48.4859L165.159 86.2339C163.614 87.38 161.543 88.0141 159.395 87.9998C157.246 87.9854 155.19 87.3238 153.671 86.1573C152.151 84.9908 151.29 83.4129 151.271 81.7633C151.252 80.1138 152.078 78.5246 153.571 77.338L196.949 44.038L153.571 10.738C152.035 9.55816 151.172 7.95822 151.172 6.28999C151.172 4.62175 152.035 3.02182 153.571 1.84202V1.84202ZM104.399 1.84202C105.936 0.662575 108.02 0 110.194 0C112.367 0 114.451 0.662575 115.988 1.84202L165.159 39.59C166.696 40.7698 167.559 42.3697 167.559 44.038C167.559 45.7062 166.696 47.3061 165.159 48.4859L115.988 86.2339C114.442 87.38 112.372 88.0141 110.223 87.9998C108.074 87.9854 106.019 87.3238 104.499 86.1573C102.98 84.9908 102.118 83.4129 102.099 81.7633C102.081 80.1138 102.907 78.5246 104.399 77.338L147.777 44.038L104.399 10.738C102.863 9.55816 102 7.95822 102 6.28999C102 4.62175 102.863 3.02182 104.399 1.84202V1.84202Z" fill="#0D0D0D"/>
<path d="M51.5711 1.84202C53.1079 0.662575 55.192 0 57.3651 0C59.5382 0 61.6223 0.662575 63.1592 1.84202L112.331 39.59C113.867 40.7698 114.73 42.3697 114.73 44.038C114.73 45.7062 113.867 47.3061 112.331 48.4859L63.1592 86.2339C61.6135 87.38 59.5434 88.0141 57.3946 87.9998C55.2458 87.9854 53.1904 87.3238 51.6709 86.1573C50.1514 84.9908 49.2895 83.4129 49.2709 81.7633C49.2522 80.1138 50.0782 78.5246 51.5711 77.338L94.9486 44.038L51.5711 10.738C50.0347 9.55816 49.1716 7.95822 49.1716 6.28999C49.1716 4.62175 50.0347 3.02182 51.5711 1.84202V1.84202ZM2.39946 1.84202C3.9363 0.662575 6.02042 0 8.19351 0C10.3666 0 12.4507 0.662575 13.9876 1.84202L63.1592 39.59C64.6955 40.7698 65.5586 42.3697 65.5586 44.038C65.5586 45.7062 64.6955 47.3061 63.1592 48.4859L13.9876 86.2339C12.4419 87.38 10.3718 88.0141 8.22301 87.9998C6.07423 87.9854 4.01876 87.3238 2.49929 86.1573C0.979824 84.9908 0.117934 83.4129 0.0992622 81.7633C0.08059 80.1138 0.90663 78.5246 2.39946 77.338L45.777 44.038L2.39946 10.738C0.863089 9.55816 0 7.95822 0 6.28999C0 4.62175 0.863089 3.02182 2.39946 1.84202V1.84202Z" fill="#0D0D0D"/>
</svg>
