<svg width="78" height="153" viewBox="0 0 148 173" fill="none" xmlns="http://www.w3.org/2000/svg">
<path d="M46.3413 0C48.8187 0 51.1947 1.51095 52.9466 4.20047C54.6984 6.88998 55.6826 10.5377 55.6826 14.3413V157.754C55.6826 161.558 54.6984 165.205 52.9466 167.895C51.1947 170.584 48.8187 172.095 46.3413 172.095C43.8638 172.095 41.4878 170.584 39.736 167.895C37.9842 165.205 37 161.558 37 157.754V14.3413C37 10.5377 37.9842 6.88998 39.736 4.20047C41.4878 1.51095 43.8638 0 46.3413 0V0ZM102.389 0C104.866 0 107.242 1.51095 108.994 4.20047C110.746 6.88998 111.73 10.5377 111.73 14.3413V157.754C111.73 161.558 110.746 165.205 108.994 167.895C107.242 170.584 104.866 172.095 102.389 172.095C99.9115 172.095 97.5355 170.584 95.7837 167.895C94.0318 165.205 93.0477 161.558 93.0477 157.754V14.3413C93.0477 10.5377 94.0318 6.88998 95.7837 4.20047C97.5355 1.51095 99.9115 0 102.389 0V0Z" fill="#0D0D0D"/>
<path d="M129.5 0C124.593 0 119.888 1.51095 116.419 4.20047C112.949 6.88998 111 10.5377 111 14.3413V157.754C111 161.558 112.949 165.205 116.419 167.895C119.888 170.584 124.593 172.095 129.5 172.095C134.407 172.095 139.112 170.584 142.581 167.895C146.051 165.205 148 161.558 148 157.754V14.3413C148 10.5377 146.051 6.88998 142.581 4.20047C139.112 1.51095 134.407 0 129.5 0V0ZM18.5 0C13.5935 0 8.88795 1.51095 5.41853 4.20047C1.94911 6.88998 0 10.5377 0 14.3413V157.754C0 161.558 1.94911 165.205 5.41853 167.895C8.88795 170.584 13.5935 172.095 18.5 172.095C23.4065 172.095 28.112 170.584 31.5815 167.895C35.0509 165.205 37 161.558 37 157.754V14.3413C37 10.5377 35.0509 6.88998 31.5815 4.20047C28.112 1.51095 23.4065 0 18.5 0V0Z" fill="#0D0D0D"/>
</svg>
