<svg width="61" height="226" viewBox="0 0 91 256" fill="none" xmlns="http://www.w3.org/2000/svg">
<path d="M1.90481 190.997C0.685163 189.075 0 186.468 0 183.75C0 181.032 0.685163 178.425 1.90481 176.503L40.9397 115.001C42.1597 113.08 43.8142 112 45.5393 112C47.2644 112 48.9189 113.08 50.1389 115.001L89.1737 176.503C90.3588 178.436 91.0146 181.026 90.9998 183.713C90.9849 186.401 90.3007 188.972 89.0945 190.872C87.8883 192.773 86.2565 193.851 84.5507 193.874C82.8449 193.897 81.2015 192.864 79.9745 190.997L45.5393 136.742L11.104 190.997C9.88401 192.919 8.22953 193.998 6.50442 193.998C4.77931 193.998 3.12483 192.919 1.90481 190.997V190.997ZM1.90481 252.499C0.685163 250.577 0 247.97 0 245.252C0 242.534 0.685163 239.927 1.90481 238.005L40.9397 176.503C42.1597 174.581 43.8142 173.502 45.5393 173.502C47.2644 173.502 48.9189 174.581 50.1389 176.503L89.1737 238.005C90.3588 239.938 91.0146 242.527 90.9998 245.215C90.9849 247.903 90.3007 250.473 89.0945 252.374C87.8883 254.274 86.2565 255.352 84.5507 255.376C82.8449 255.399 81.2015 254.366 79.9745 252.499L45.5393 198.244L11.104 252.499C9.88401 254.42 8.22953 255.5 6.50442 255.5C4.77931 255.5 3.12483 254.42 1.90481 252.499V252.499Z" fill="#0D0D0D"/>
<path d="M1.90481 78.997C0.685163 77.0747 0 74.468 0 71.75C0 69.032 0.685163 66.4252 1.90481 64.503L40.9397 3.00114C42.1597 1.07951 43.8142 7.36311e-08 45.5393 7.36311e-08C47.2644 7.36311e-08 48.9189 1.07951 50.1389 3.00114L89.1737 64.503C90.3588 66.4362 91.0146 69.0255 90.9998 71.7131C90.9849 74.4007 90.3007 76.9716 89.0945 78.8721C87.8883 80.7726 86.2565 81.8506 84.5507 81.8739C82.8449 81.8973 81.2015 80.8641 79.9745 78.997L45.5393 24.7421L11.104 78.997C9.88401 80.9186 8.22953 81.9981 6.50442 81.9981C4.77931 81.9981 3.12483 80.9186 1.90481 78.997V78.997ZM1.90481 140.499C0.685163 138.577 0 135.97 0 133.252C0 130.534 0.685163 127.927 1.90481 126.005L40.9397 64.503C42.1597 62.5814 43.8142 61.5019 45.5393 61.5019C47.2644 61.5019 48.9189 62.5814 50.1389 64.503L89.1737 126.005C90.3588 127.938 91.0146 130.527 90.9998 133.215C90.9849 135.903 90.3007 138.473 89.0945 140.374C87.8883 142.274 86.2565 143.352 84.5507 143.376C82.8449 143.399 81.2015 142.366 79.9745 140.499L45.5393 86.2439L11.104 140.499C9.88401 142.42 8.22953 143.5 6.50442 143.5C4.77931 143.5 3.12483 142.42 1.90481 140.499V140.499Z" fill="#0D0D0D"/>
</svg>
